<svg width="24" height="24" viewBox="0 0 24 24" fill="none" xmlns="http://www.w3.org/2000/svg">
<path d="M2.99994 20.79V5.50005C2.99994 4.96961 3.21065 4.4609 3.58573 4.08583C3.9608 3.71076 4.46951 3.50005 4.99994 3.50005H18.9999C19.5304 3.50005 20.0391 3.71076 20.4142 4.08583C20.7892 4.4609 20.9999 4.96961 20.9999 5.50005V16.25C20.9999 16.7805 20.7892 17.2892 20.4142 17.6643C20.0391 18.0393 19.5304 18.25 18.9999 18.25H8.06094C7.76117 18.2501 7.46525 18.3175 7.19505 18.4473C6.92485 18.5771 6.68729 18.766 6.49994 19L4.06894 21.164C3.99137 21.2613 3.8855 21.332 3.76598 21.3664C3.64646 21.4008 3.5192 21.3972 3.4018 21.3562C3.2844 21.3151 3.18267 21.2386 3.11067 21.1371C3.03868 21.0357 2.99998 20.9144 2.99994 20.79Z" stroke="black" stroke-width="1.5"/>
</svg>
