<svg width="20" height="20" viewBox="0 0 20 20" fill="none" xmlns="http://www.w3.org/2000/svg">
<path fill-rule="evenodd" clip-rule="evenodd" d="M12.0665 3.125C11.0172 3.125 10.1665 3.96447 10.1665 5C10.1665 6.03553 11.0172 6.875 12.0665 6.875C13.1158 6.875 13.9665 6.03553 13.9665 5C13.9665 3.96447 13.1158 3.125 12.0665 3.125ZM14.1247 7.37502C14.8032 6.80187 15.2332 5.95049 15.2332 5C15.2332 3.27411 13.8154 1.875 12.0665 1.875C10.3176 1.875 8.89984 3.27411 8.89984 5C8.89984 5.95049 9.32985 6.80187 10.0084 7.37502C9.61505 7.57845 9.25145 7.84084 8.93167 8.15641C8.10026 8.97688 7.63318 10.0897 7.63318 11.25C7.63318 11.5952 7.91673 11.875 8.26651 11.875C8.61629 11.875 8.89984 11.5952 8.89984 11.25C8.89984 10.4212 9.23347 9.62634 9.82734 9.04029C10.4212 8.45424 11.2267 8.125 12.0665 8.125C12.9064 8.125 13.7118 8.45424 14.3057 9.04029C14.8995 9.62634 15.2332 10.4212 15.2332 11.25C15.2332 11.5952 15.5167 11.875 15.8665 11.875C16.2163 11.875 16.4998 11.5952 16.4998 11.25C16.4998 10.0897 16.0328 8.97688 15.2013 8.15641C14.8816 7.84084 14.518 7.57845 14.1247 7.37502Z" fill="black"/>
<path fill-rule="evenodd" clip-rule="evenodd" d="M18.3998 1.25H3.19984V18.75H18.3998V1.25ZM3.19984 0C2.50028 0 1.93318 0.559644 1.93318 1.25V18.75C1.93318 19.4404 2.50028 20 3.19984 20H18.3998C19.0994 20 19.6665 19.4404 19.6665 18.75V1.25C19.6665 0.559644 19.0994 0 18.3998 0H3.19984Z" fill="black"/>
<path fill-rule="evenodd" clip-rule="evenodd" d="M7.63318 13.125C7.63318 12.7798 7.91673 12.5 8.26651 12.5H15.8665C16.2163 12.5 16.4998 12.7798 16.4998 13.125C16.4998 13.4702 16.2163 13.75 15.8665 13.75H8.26651C7.91673 13.75 7.63318 13.4702 7.63318 13.125Z" fill="black"/>
<path fill-rule="evenodd" clip-rule="evenodd" d="M7.63318 16.25C7.63318 15.9048 7.91673 15.625 8.26651 15.625H13.3332C13.683 15.625 13.9665 15.9048 13.9665 16.25C13.9665 16.5952 13.683 16.875 13.3332 16.875H8.26651C7.91673 16.875 7.63318 16.5952 7.63318 16.25Z" fill="black"/>
<path fill-rule="evenodd" clip-rule="evenodd" d="M0.666512 3.75C0.666512 3.40482 0.950065 3.125 1.29984 3.125H3.83318C4.18296 3.125 4.46651 3.40482 4.46651 3.75C4.46651 4.09518 4.18296 4.375 3.83318 4.375H1.29984C0.950065 4.375 0.666512 4.09518 0.666512 3.75Z" fill="black"/>
<path fill-rule="evenodd" clip-rule="evenodd" d="M0.6895 15C0.6895 14.6548 0.973053 14.375 1.32283 14.375H3.85617C4.20595 14.375 4.4895 14.6548 4.4895 15C4.4895 15.3452 4.20595 15.625 3.85617 15.625H1.32283C0.973053 15.625 0.6895 15.3452 0.6895 15Z" fill="black"/>
<path fill-rule="evenodd" clip-rule="evenodd" d="M0.666512 6.25C0.666512 5.90482 0.950065 5.625 1.29984 5.625H3.83318C4.18296 5.625 4.46651 5.90482 4.46651 6.25C4.46651 6.59518 4.18296 6.875 3.83318 6.875H1.29984C0.950065 6.875 0.666512 6.59518 0.666512 6.25Z" fill="black"/>
<path fill-rule="evenodd" clip-rule="evenodd" d="M0.666504 17.5C0.666504 17.1548 0.950057 16.875 1.29984 16.875H3.83317C4.18295 16.875 4.4665 17.1548 4.4665 17.5C4.4665 17.8452 4.18295 18.125 3.83317 18.125H1.29984C0.950057 18.125 0.666504 17.8452 0.666504 17.5Z" fill="black"/>
</svg>
