<svg width="20" height="16" viewBox="0 0 20 16" fill="none" xmlns="http://www.w3.org/2000/svg">
<path fill-rule="evenodd" clip-rule="evenodd" d="M15.4235 1.16783C13.7275 1.2578 11.6689 1.61721 10.05 2.64752C8.11528 3.87883 5.87003 3.44219 4.20537 2.78297C3.36043 2.44837 2.63128 2.0435 2.11417 1.72329C2.11111 1.72139 2.10806 1.7195 2.10502 1.71762V3.42852C2.10502 3.74411 1.86938 3.99995 1.5787 3.99995C1.28803 3.99995 1.05239 3.74411 1.05239 3.42852V0.688679C1.05239 0.474884 1.16231 0.278973 1.33729 0.180909C1.51227 0.0828441 1.72303 0.0990317 1.88355 0.222864L1.5787 0.688679C1.88355 0.222864 1.88365 0.222938 1.88355 0.222864C1.88344 0.222779 1.88352 0.22284 1.88355 0.222864L1.88488 0.223875L1.89295 0.230003L1.9288 0.256734C1.96127 0.280703 2.0106 0.316548 2.07532 0.361972C2.20481 0.452869 2.39551 0.581825 2.63568 0.730549C3.11722 1.02874 3.79158 1.4026 4.56607 1.70931C6.14028 2.3327 7.99759 2.629 9.51767 1.66157C11.3536 0.493144 13.6135 0.119626 15.3722 0.0263388C16.2587 -0.0206821 17.0337 0.00280805 17.5879 0.0380741C17.8653 0.055724 18.088 0.0763701 18.2426 0.0927619C18.3199 0.10096 18.3801 0.108099 18.4217 0.113278L18.4699 0.119464L18.4831 0.121245L18.4869 0.12177L18.4881 0.121936C18.4882 0.121959 18.4888 0.122037 18.4208 0.688679L18.4881 0.121936C18.7503 0.159014 18.9471 0.40162 18.9471 0.688679V2.85712C18.9471 3.17271 18.7115 3.42855 18.4208 3.42855C18.1301 3.42855 17.8945 3.17271 17.8945 2.85712V1.20659C17.7879 1.19731 17.6645 1.18776 17.5263 1.17897C17.0009 1.14554 16.2645 1.12323 15.4235 1.16783Z" fill="black"/>
<path fill-rule="evenodd" clip-rule="evenodd" d="M9.99976 12C11.1625 12 12.105 10.9766 12.105 9.71428C12.105 8.45192 11.1625 7.42857 9.99976 7.42857C8.83705 7.42857 7.89449 8.45192 7.89449 9.71428C7.89449 10.9766 8.83705 12 9.99976 12ZM9.99976 11.1492C9.26986 11.1492 8.67816 10.5067 8.67816 9.71428C8.67816 8.92182 9.26986 8.2794 9.99976 8.2794C10.7297 8.2794 11.3214 8.92182 11.3214 9.71428C11.3214 10.5067 10.7297 11.1492 9.99976 11.1492Z" fill="black"/>
<path fill-rule="evenodd" clip-rule="evenodd" d="M6.31555 9.71428C6.31555 10.0299 6.07991 10.2857 5.78923 10.2857H3.68397C3.39329 10.2857 3.15765 10.0299 3.15765 9.71428C3.15765 9.39869 3.39329 9.14285 3.68397 9.14285H5.78923C6.07991 9.14285 6.31555 9.39869 6.31555 9.71428Z" fill="black"/>
<path fill-rule="evenodd" clip-rule="evenodd" d="M16.8419 8.57142C16.8419 8.88701 16.6062 9.14285 16.3155 9.14285H14.2103C13.9196 9.14285 13.684 8.88701 13.684 8.57142C13.684 8.25583 13.9196 8 14.2103 8H16.3155C16.6062 8 16.8419 8.25583 16.8419 8.57142Z" fill="black"/>
<path fill-rule="evenodd" clip-rule="evenodd" d="M16.9314 12.51C16.9754 12.2815 17.0483 12.0464 17.1188 11.8219C17.2227 11.4914 17.4171 11.2031 17.6761 10.9958C17.935 10.7885 18.246 10.672 18.5676 10.662C18.5965 10.661 18.6251 10.6601 18.6536 10.6591C18.8513 10.6525 19.0406 10.6461 19.2233 10.6616C19.289 10.6671 19.3469 10.6751 19.3974 10.685L19.3971 12.5826L16.9184 12.5826C16.9223 12.5593 16.9266 12.5351 16.9314 12.51ZM16.4038 13.1541L19.9233 13.154L19.9238 10.2938C19.5871 10.0555 19.0537 10.0737 18.6351 10.088C18.607 10.089 18.5794 10.0899 18.5524 10.0908C18.1237 10.1042 17.7089 10.2595 17.3637 10.5359C17.0185 10.8123 16.7592 11.1966 16.6207 11.6374C16.4822 12.0782 16.2862 12.7062 16.4038 13.1541Z" fill="black"/>
<path fill-rule="evenodd" clip-rule="evenodd" d="M1.05239 7.00962C1.27475 7.05666 1.51669 7.05914 1.73223 7.01333C2.04794 6.94623 2.33724 6.77603 2.56141 6.52551C2.78558 6.27498 2.93391 5.9561 2.98656 5.61153C2.99128 5.58062 2.99603 5.54992 3.00076 5.5194C3.03353 5.30762 3.0649 5.10489 3.0755 4.90621C3.08155 4.79263 3.07928 4.69976 3.07127 4.62502L1.05239 3.7136V7.00962ZM0.526072 7.42857V2.85714L3.50578 4.20232C3.67776 4.59674 3.58907 5.16804 3.51947 5.61642C3.51479 5.64654 3.5102 5.67612 3.50578 5.70504C3.43558 6.16447 3.2378 6.58965 2.93891 6.92368C2.64003 7.25771 2.25429 7.48465 1.83334 7.57411C1.41239 7.66358 0.918905 7.61558 0.526072 7.42857Z" fill="black"/>
<path fill-rule="evenodd" clip-rule="evenodd" d="M16.0955 3.45369C14.1784 3.54408 11.8412 3.90549 10.0001 4.94705C7.86544 6.15466 5.38457 5.73123 3.52164 5.07546C2.57808 4.74331 1.76282 4.34102 1.18382 4.02231C1.13858 3.99741 1.09476 3.973 1.05239 3.94916V12.9345C1.19808 13.0249 1.40421 13.148 1.65981 13.2887C2.2043 13.5884 2.96798 13.9648 3.84629 14.274C5.62709 14.9009 7.7616 15.2104 9.51364 14.2192C11.5592 13.062 14.0802 12.6905 16.0498 12.5976C17.0417 12.5509 17.9091 12.5742 18.5292 12.6093C18.6845 12.6181 18.8244 12.6276 18.9471 12.637V3.49709C18.8142 3.4864 18.6555 3.47513 18.4744 3.46489C17.8799 3.43126 17.0469 3.40883 16.0955 3.45369ZM19.4734 2.97439L19.534 2.40676C19.7995 2.44013 19.9998 2.68423 19.9998 2.97439V13.2601C19.9998 13.4231 19.9356 13.5784 19.8235 13.6868C19.7115 13.7952 19.5622 13.8465 19.4131 13.8278M19.4131 13.8278L19.4104 13.8274L19.3996 13.8261L19.3536 13.8209C19.3125 13.8164 19.2506 13.8098 19.1698 13.8022C19.0082 13.787 18.7714 13.7674 18.4744 13.7506C17.8799 13.717 17.0469 13.6946 16.0955 13.7394C14.1784 13.8298 11.8412 14.1912 10 15.2327C7.86544 16.4403 5.38457 16.0169 3.52164 15.3612C2.57809 15.029 1.76282 14.6267 1.18383 14.308C0.893819 14.1484 0.661767 14.009 0.501054 13.9087C0.420666 13.8586 0.358033 13.8181 0.314825 13.7898C0.293218 13.7756 0.27646 13.7645 0.264758 13.7566L0.251021 13.7473L0.247044 13.7446L0.245786 13.7438C0.245786 13.7438 0.245019 13.7433 0.526072 13.2601L0.245786 13.7438C0.0931049 13.6391 -0.000244141 13.4562 -0.000244141 13.2601V2.97439C-0.000244141 2.76618 0.104066 2.57445 0.272021 2.47394C0.439975 2.37344 0.644986 2.38008 0.807128 2.49126L0.526072 2.97439C0.807128 2.49126 0.807128 2.49126 0.807128 2.49126L0.808903 2.49247L0.818287 2.4988L0.859254 2.52595C0.896227 2.55021 0.952205 2.58637 1.02554 2.63212C1.17226 2.72367 1.38809 2.8534 1.65982 3.00298C2.20431 3.30269 2.96799 3.67914 3.84629 3.98831C5.62709 4.61518 7.7616 4.9247 9.51363 3.93353C11.5592 2.77632 14.0802 2.40477 16.0498 2.31191C17.0417 2.26514 17.9091 2.28851 18.5292 2.32358C18.8394 2.34113 19.0884 2.36165 19.2609 2.37791C19.3471 2.38604 19.4143 2.39311 19.4604 2.39822L19.5136 2.4043L19.528 2.40602L19.5321 2.40652L19.534 2.40676C19.534 2.40676 19.534 2.40676 19.4734 2.97439" fill="black"/>
</svg>
