<svg width="22" height="22" viewBox="0 0 22 22" fill="none" xmlns="http://www.w3.org/2000/svg">
<mask id="path-1-outside-1_383_65" maskUnits="userSpaceOnUse" x="0.333313" y="0" width="22" height="22" fill="black">
<rect fill="white" x="0.333313" width="22" height="22"/>
<path fill-rule="evenodd" clip-rule="evenodd" d="M2.46011 1.16527C2.5737 1.05038 2.7533 1.03684 2.88249 1.13341L5.14793 2.82693C5.21778 2.87914 5.26402 2.95749 5.2763 3.04446L5.36148 3.64749C5.36479 3.67093 5.37553 3.69265 5.39208 3.70938L9.23543 7.59649C9.27768 7.63922 9.27768 7.70849 9.23543 7.75122C9.19319 7.79395 9.12469 7.79395 9.08245 7.75122L5.23909 3.86411C5.18944 3.81389 5.15723 3.74874 5.1473 3.67844L5.06212 3.0754C5.05803 3.04642 5.04262 3.0203 5.01933 3.00289L2.75389 1.30937C2.71083 1.27718 2.65096 1.2817 2.6131 1.31999L1.58135 2.36348C1.54287 2.40241 1.53897 2.46419 1.57225 2.50774L3.22988 4.67733C3.25036 4.70414 3.28197 4.71984 3.31547 4.71984H3.87321C3.9625 4.71984 4.04784 4.75705 4.10915 4.8227L7.72312 8.69282C7.76414 8.73674 7.76218 8.80599 7.71875 8.84748C7.67531 8.88897 7.60685 8.88699 7.56582 8.84306L3.95186 4.97294C3.93142 4.95106 3.90298 4.93866 3.87321 4.93866H3.31547C3.21497 4.93866 3.12013 4.89156 3.05868 4.81113L1.40105 2.64154C1.30121 2.51087 1.31291 2.32553 1.42837 2.20876L2.46011 1.16527Z"/>
<path fill-rule="evenodd" clip-rule="evenodd" d="M14.9137 10.7715L14.7606 10.9261L19.9287 16.1608C20.9733 17.2189 20.9721 18.9331 19.9259 19.9896C18.8797 21.0462 17.1848 21.0449 16.1402 19.9868L10.9721 14.752L10.819 14.9066L15.9871 20.1414C17.1161 21.285 18.948 21.2864 20.0787 20.1445C21.2095 19.0026 21.2109 17.1498 20.0818 16.0062L14.9137 10.7715Z"/>
<path fill-rule="evenodd" clip-rule="evenodd" d="M14.7606 10.9261L14.9137 10.7715L20.0818 16.0062C21.2109 17.1498 21.2095 19.0026 20.0787 20.1445C18.948 21.2864 17.1161 21.285 15.9871 20.1414L10.819 14.9066L10.9721 14.752L16.1402 19.9868C16.2707 20.119 16.4115 20.2348 16.5598 20.334C17.5984 21.0287 19.0105 20.9141 19.9259 19.9896C20.9721 18.9331 20.9733 17.2189 19.9287 16.1608L14.7606 10.9261ZM18.58 17.464L14.315 13.1444C14.014 12.8396 13.5257 12.8392 13.2243 13.1436C12.9229 13.448 12.9225 13.9419 13.2235 14.2468L17.4885 18.5663C17.7895 18.8712 18.2778 18.8715 18.5792 18.5671C18.8806 18.2627 18.881 17.7688 18.58 17.464ZM13.0714 12.9888C12.6854 13.3786 12.685 14.011 13.0704 14.4014L17.3354 18.721C17.7208 19.1113 18.3462 19.1118 18.7321 18.722C19.1181 18.3322 19.1185 17.6997 18.7331 17.3094L14.4681 12.9898C14.0827 12.5994 13.4573 12.599 13.0714 12.9888Z"/>
<path fill-rule="evenodd" clip-rule="evenodd" d="M14.6396 1.79588C15.6688 1.04652 17.0258 0.92199 18.0555 1.03742C18.3171 1.06675 18.415 1.37657 18.2499 1.56531L16.1517 3.96415C16.1137 4.00763 16.1159 4.07356 16.1566 4.1144L18.0637 6.02362C18.1054 6.06539 18.1724 6.06588 18.2148 6.02473L20.6265 3.67934C20.7977 3.51289 21.0896 3.58255 21.1527 3.82379C21.6539 5.74248 21.0621 7.31195 19.9938 8.22818C18.9279 9.14226 17.3937 9.39945 16.0309 8.7074C15.9834 8.68328 15.9287 8.69243 15.8955 8.72554L8.19139 16.4107C8.1686 16.4334 8.15545 16.471 8.15986 16.5089C8.28323 17.5672 8.08783 18.3215 7.6977 18.8448C7.30828 19.3671 6.737 19.6428 6.14041 19.7693C5.54413 19.8958 4.91434 19.8752 4.39283 19.7983C3.87545 19.7219 3.44818 19.5875 3.26176 19.4743C2.83046 19.2126 2.48645 18.7064 2.28121 18.1173C2.07527 17.5261 2.00375 16.8371 2.13097 16.1947C2.25847 15.551 2.58671 14.9505 3.18216 14.5492C3.77692 14.1483 4.62478 13.9551 5.77512 14.098C5.81289 14.1027 5.85056 14.089 5.87322 14.0651L13.1882 6.34514C13.21 6.32207 13.2218 6.28609 13.2173 6.25038C12.921 3.9261 13.6008 2.55224 14.6396 1.79588ZM14.766 1.97346C13.807 2.67169 13.1431 3.95683 13.4319 6.2224C13.4443 6.31969 13.4143 6.4228 13.3444 6.49654L6.02943 14.2165C5.95595 14.294 5.84887 14.3276 5.74874 14.3152C4.6336 14.1766 3.84198 14.3674 3.30215 14.7312C2.763 15.0946 2.46154 15.6397 2.34311 16.2377C2.22439 16.8371 2.29071 17.4861 2.48527 18.0446C2.68052 18.605 2.99968 19.0601 3.37308 19.2867C3.52214 19.3772 3.91505 19.5066 4.42408 19.5817C4.92898 19.6563 5.53185 19.6748 6.09601 19.5552C6.65986 19.4356 7.17681 19.18 7.52495 18.713C7.87238 18.247 8.06387 17.5542 7.945 16.5345C7.93345 16.4354 7.96518 16.329 8.03947 16.2549L15.7436 8.56975C15.8474 8.46622 16.0035 8.44866 16.1279 8.51185C17.4094 9.16256 18.8508 8.9215 19.8539 8.06128C20.8544 7.20322 21.4248 5.72236 20.9435 3.87969C20.925 3.80881 20.8354 3.77976 20.7765 3.83707L18.3647 6.18246C18.2378 6.30591 18.0366 6.30444 17.9115 6.17913L16.0044 4.26991C15.8821 4.14741 15.8756 3.94959 15.9897 3.81917L18.0878 1.42033C18.1461 1.3537 18.1051 1.26314 18.0317 1.25491C17.0297 1.14258 15.7347 1.26823 14.766 1.97346Z"/>
<path fill-rule="evenodd" clip-rule="evenodd" d="M4.94006 17.9582C5.47775 17.9582 5.91364 17.5174 5.91364 16.9735C5.91364 16.4297 5.47775 15.9889 4.94006 15.9889C4.40236 15.9889 3.96647 16.4297 3.96647 16.9735C3.96647 17.5174 4.40236 17.9582 4.94006 17.9582ZM4.94006 18.177C5.59724 18.177 6.13 17.6382 6.13 16.9735C6.13 16.3089 5.59724 15.77 4.94006 15.77C4.28287 15.77 3.75012 16.3089 3.75012 16.9735C3.75012 17.6382 4.28287 18.177 4.94006 18.177Z"/>
</mask>
<path fill-rule="evenodd" clip-rule="evenodd" d="M2.46011 1.16527C2.5737 1.05038 2.7533 1.03684 2.88249 1.13341L5.14793 2.82693C5.21778 2.87914 5.26402 2.95749 5.2763 3.04446L5.36148 3.64749C5.36479 3.67093 5.37553 3.69265 5.39208 3.70938L9.23543 7.59649C9.27768 7.63922 9.27768 7.70849 9.23543 7.75122C9.19319 7.79395 9.12469 7.79395 9.08245 7.75122L5.23909 3.86411C5.18944 3.81389 5.15723 3.74874 5.1473 3.67844L5.06212 3.0754C5.05803 3.04642 5.04262 3.0203 5.01933 3.00289L2.75389 1.30937C2.71083 1.27718 2.65096 1.2817 2.6131 1.31999L1.58135 2.36348C1.54287 2.40241 1.53897 2.46419 1.57225 2.50774L3.22988 4.67733C3.25036 4.70414 3.28197 4.71984 3.31547 4.71984H3.87321C3.9625 4.71984 4.04784 4.75705 4.10915 4.8227L7.72312 8.69282C7.76414 8.73674 7.76218 8.80599 7.71875 8.84748C7.67531 8.88897 7.60685 8.88699 7.56582 8.84306L3.95186 4.97294C3.93142 4.95106 3.90298 4.93866 3.87321 4.93866H3.31547C3.21497 4.93866 3.12013 4.89156 3.05868 4.81113L1.40105 2.64154C1.30121 2.51087 1.31291 2.32553 1.42837 2.20876L2.46011 1.16527Z" fill="black"/>
<path fill-rule="evenodd" clip-rule="evenodd" d="M14.9137 10.7715L14.7606 10.9261L19.9287 16.1608C20.9733 17.2189 20.9721 18.9331 19.9259 19.9896C18.8797 21.0462 17.1848 21.0449 16.1402 19.9868L10.9721 14.752L10.819 14.9066L15.9871 20.1414C17.1161 21.285 18.948 21.2864 20.0787 20.1445C21.2095 19.0026 21.2109 17.1498 20.0818 16.0062L14.9137 10.7715Z" fill="black"/>
<path fill-rule="evenodd" clip-rule="evenodd" d="M14.7606 10.9261L14.9137 10.7715L20.0818 16.0062C21.2109 17.1498 21.2095 19.0026 20.0787 20.1445C18.948 21.2864 17.1161 21.285 15.9871 20.1414L10.819 14.9066L10.9721 14.752L16.1402 19.9868C16.2707 20.119 16.4115 20.2348 16.5598 20.334C17.5984 21.0287 19.0105 20.9141 19.9259 19.9896C20.9721 18.9331 20.9733 17.2189 19.9287 16.1608L14.7606 10.9261ZM18.58 17.464L14.315 13.1444C14.014 12.8396 13.5257 12.8392 13.2243 13.1436C12.9229 13.448 12.9225 13.9419 13.2235 14.2468L17.4885 18.5663C17.7895 18.8712 18.2778 18.8715 18.5792 18.5671C18.8806 18.2627 18.881 17.7688 18.58 17.464ZM13.0714 12.9888C12.6854 13.3786 12.685 14.011 13.0704 14.4014L17.3354 18.721C17.7208 19.1113 18.3462 19.1118 18.7321 18.722C19.1181 18.3322 19.1185 17.6997 18.7331 17.3094L14.4681 12.9898C14.0827 12.5994 13.4573 12.599 13.0714 12.9888Z" fill="black"/>
<path fill-rule="evenodd" clip-rule="evenodd" d="M14.6396 1.79588C15.6688 1.04652 17.0258 0.92199 18.0555 1.03742C18.3171 1.06675 18.415 1.37657 18.2499 1.56531L16.1517 3.96415C16.1137 4.00763 16.1159 4.07356 16.1566 4.1144L18.0637 6.02362C18.1054 6.06539 18.1724 6.06588 18.2148 6.02473L20.6265 3.67934C20.7977 3.51289 21.0896 3.58255 21.1527 3.82379C21.6539 5.74248 21.0621 7.31195 19.9938 8.22818C18.9279 9.14226 17.3937 9.39945 16.0309 8.7074C15.9834 8.68328 15.9287 8.69243 15.8955 8.72554L8.19139 16.4107C8.1686 16.4334 8.15545 16.471 8.15986 16.5089C8.28323 17.5672 8.08783 18.3215 7.6977 18.8448C7.30828 19.3671 6.737 19.6428 6.14041 19.7693C5.54413 19.8958 4.91434 19.8752 4.39283 19.7983C3.87545 19.7219 3.44818 19.5875 3.26176 19.4743C2.83046 19.2126 2.48645 18.7064 2.28121 18.1173C2.07527 17.5261 2.00375 16.8371 2.13097 16.1947C2.25847 15.551 2.58671 14.9505 3.18216 14.5492C3.77692 14.1483 4.62478 13.9551 5.77512 14.098C5.81289 14.1027 5.85056 14.089 5.87322 14.0651L13.1882 6.34514C13.21 6.32207 13.2218 6.28609 13.2173 6.25038C12.921 3.9261 13.6008 2.55224 14.6396 1.79588ZM14.766 1.97346C13.807 2.67169 13.1431 3.95683 13.4319 6.2224C13.4443 6.31969 13.4143 6.4228 13.3444 6.49654L6.02943 14.2165C5.95595 14.294 5.84887 14.3276 5.74874 14.3152C4.6336 14.1766 3.84198 14.3674 3.30215 14.7312C2.763 15.0946 2.46154 15.6397 2.34311 16.2377C2.22439 16.8371 2.29071 17.4861 2.48527 18.0446C2.68052 18.605 2.99968 19.0601 3.37308 19.2867C3.52214 19.3772 3.91505 19.5066 4.42408 19.5817C4.92898 19.6563 5.53185 19.6748 6.09601 19.5552C6.65986 19.4356 7.17681 19.18 7.52495 18.713C7.87238 18.247 8.06387 17.5542 7.945 16.5345C7.93345 16.4354 7.96518 16.329 8.03947 16.2549L15.7436 8.56975C15.8474 8.46622 16.0035 8.44866 16.1279 8.51185C17.4094 9.16256 18.8508 8.9215 19.8539 8.06128C20.8544 7.20322 21.4248 5.72236 20.9435 3.87969C20.925 3.80881 20.8354 3.77976 20.7765 3.83707L18.3647 6.18246C18.2378 6.30591 18.0366 6.30444 17.9115 6.17913L16.0044 4.26991C15.8821 4.14741 15.8756 3.94959 15.9897 3.81917L18.0878 1.42033C18.1461 1.3537 18.1051 1.26314 18.0317 1.25491C17.0297 1.14258 15.7347 1.26823 14.766 1.97346Z" fill="black"/>
<path fill-rule="evenodd" clip-rule="evenodd" d="M4.94006 17.9582C5.47775 17.9582 5.91364 17.5174 5.91364 16.9735C5.91364 16.4297 5.47775 15.9889 4.94006 15.9889C4.40236 15.9889 3.96647 16.4297 3.96647 16.9735C3.96647 17.5174 4.40236 17.9582 4.94006 17.9582ZM4.94006 18.177C5.59724 18.177 6.13 17.6382 6.13 16.9735C6.13 16.3089 5.59724 15.77 4.94006 15.77C4.28287 15.77 3.75012 16.3089 3.75012 16.9735C3.75012 17.6382 4.28287 18.177 4.94006 18.177Z" fill="black"/>
<path d="M14.7606 10.9261L14.583 10.7502L14.4091 10.9258L14.5827 11.1017L14.7606 10.9261ZM14.9137 10.7715L15.0916 10.5958L14.914 10.4159L14.7361 10.5955L14.9137 10.7715ZM19.9287 16.1608L20.1066 15.9852L19.9287 16.1608ZM10.9721 14.752L11.15 14.5764L10.9723 14.3964L10.7944 14.5761L10.9721 14.752ZM10.819 14.9066L10.6413 14.7307L10.4674 14.9063L10.6411 15.0823L10.819 14.9066ZM15.9871 20.1414L16.165 19.9657L15.9871 20.1414ZM20.0787 20.1445L20.2564 20.3204L20.0787 20.1445ZM20.0818 16.0062L20.2597 15.8306L20.0818 16.0062ZM14.9383 11.102L15.0914 10.9474L14.7361 10.5955L14.583 10.7502L14.9383 11.102ZM20.1066 15.9852L14.9385 10.7504L14.5827 11.1017L19.7508 16.3365L20.1066 15.9852ZM20.1035 20.1656C21.2461 19.0117 21.2475 17.1408 20.1066 15.9852L19.7508 16.3365C20.6992 17.2971 20.698 18.8546 19.7482 19.8137L20.1035 20.1656ZM10.7942 14.9276L15.9623 20.1624L16.3181 19.8111L11.15 14.5764L10.7942 14.9276ZM10.9966 15.0825L11.1497 14.9279L10.7944 14.5761L10.6413 14.7307L10.9966 15.0825ZM16.165 19.9657L10.9969 14.731L10.6411 15.0823L15.8092 20.317L16.165 19.9657ZM19.9011 19.9686C18.8683 21.0116 17.1962 21.0103 16.165 19.9657L15.8092 20.317C17.036 21.5597 19.0277 21.5612 20.2564 20.3204L19.9011 19.9686ZM19.9039 16.1819C20.9367 17.228 20.9355 18.924 19.9011 19.9686L20.2564 20.3204C21.4835 19.0812 21.485 17.0717 20.2597 15.8306L19.9039 16.1819ZM14.7358 10.9471L19.9039 16.1819L20.2597 15.8306L15.0916 10.5958L14.7358 10.9471ZM2.88249 1.13341L3.18186 0.732934L2.88249 1.13341ZM2.46011 1.16527L2.81566 1.51681V1.51681L2.46011 1.16527ZM5.14793 2.82693L4.84856 3.2274L4.84856 3.2274L5.14793 2.82693ZM5.2763 3.04446L5.77139 2.97453L5.77139 2.97453L5.2763 3.04446ZM5.36148 3.64749L4.86639 3.71742L4.86639 3.71743L5.36148 3.64749ZM5.39208 3.70938L5.03653 4.06093L5.03653 4.06093L5.39208 3.70938ZM9.23543 7.59649L9.59098 7.24495L9.23543 7.59649ZM9.23543 7.75122L9.59098 8.10277L9.59098 8.10277L9.23543 7.75122ZM9.08245 7.75122L8.7269 8.10277L8.7269 8.10277L9.08245 7.75122ZM5.23909 3.86411L4.88354 4.21566L4.88354 4.21566L5.23909 3.86411ZM5.1473 3.67844L5.64239 3.60851V3.60851L5.1473 3.67844ZM5.06212 3.0754L4.56704 3.14533L4.56704 3.14533L5.06212 3.0754ZM5.01933 3.00289L5.3187 2.60242L5.3187 2.60242L5.01933 3.00289ZM2.75389 1.30937L2.45452 1.70984L2.75389 1.30937ZM2.6131 1.31999L2.25755 0.968445L2.25755 0.968446L2.6131 1.31999ZM1.58135 2.36348L1.9369 2.71503L1.9369 2.71503L1.58135 2.36348ZM1.57225 2.50774L1.17494 2.8113L1.17494 2.8113L1.57225 2.50774ZM3.22988 4.67733L2.83257 4.98089L2.83257 4.98089L3.22988 4.67733ZM4.10915 4.8227L4.47459 4.48145L4.47459 4.48145L4.10915 4.8227ZM7.72312 8.69282L8.08856 8.35156L8.08856 8.35156L7.72312 8.69282ZM7.71875 8.84748L7.37339 8.48592L7.37338 8.48592L7.71875 8.84748ZM7.56582 8.84306L7.93127 8.50181L7.93126 8.50181L7.56582 8.84306ZM3.95186 4.97294L3.58642 5.3142L3.58642 5.3142L3.95186 4.97294ZM3.05868 4.81113L3.45599 4.50757L3.45599 4.50757L3.05868 4.81113ZM1.40105 2.64154L1.00374 2.94509L1.00374 2.94509L1.40105 2.64154ZM1.42837 2.20876L1.78392 2.5603L1.78392 2.5603L1.42837 2.20876ZM17.3354 18.721L17.6912 18.3697L17.3354 18.721ZM18.7331 17.3094L19.0889 16.9581L18.7331 17.3094ZM14.4681 12.9898L14.1123 13.3411L14.4681 12.9898ZM13.0704 14.4014L12.7146 14.7527L13.0704 14.4014ZM16.5598 20.334L16.2818 20.7496L16.5598 20.334ZM14.315 13.1444L14.6708 12.7931L14.315 13.1444ZM18.58 17.464L18.9358 17.1127V17.1127L18.58 17.464ZM13.2243 13.1436L12.869 12.7918L13.2243 13.1436ZM13.2235 14.2468L13.5793 13.8955L13.2235 14.2468ZM17.4885 18.5663L17.8443 18.2151L17.4885 18.5663ZM18.5792 18.5671L18.9345 18.9189L18.5792 18.5671ZM18.0555 1.03742L17.9998 1.53431H17.9998L18.0555 1.03742ZM14.6396 1.79588L14.3453 1.39167L14.6396 1.79588ZM18.2499 1.56531L18.6262 1.89449L18.2499 1.56531ZM16.1517 3.96415L15.7754 3.63497L15.7754 3.63497L16.1517 3.96415ZM16.1566 4.1144L15.8029 4.46775L15.8029 4.46775L16.1566 4.1144ZM18.0637 6.02362L18.4174 5.67027L18.4174 5.67027L18.0637 6.02362ZM18.2148 6.02473L18.5633 6.38318L18.5633 6.38318L18.2148 6.02473ZM20.6265 3.67934L20.2779 3.32089V3.32089L20.6265 3.67934ZM21.1527 3.82379L21.6364 3.69742V3.69742L21.1527 3.82379ZM19.9938 8.22818L19.6683 7.84863L19.9938 8.22818ZM16.0309 8.7074L15.8045 9.15322L15.8045 9.15322L16.0309 8.7074ZM15.8955 8.72554L15.5424 8.37155L15.5424 8.37155L15.8955 8.72554ZM8.19139 16.4107L8.5445 16.7647L8.54451 16.7647L8.19139 16.4107ZM8.15986 16.5089L8.6565 16.451V16.451L8.15986 16.5089ZM7.6977 18.8448L8.09855 19.1436H8.09855L7.6977 18.8448ZM6.14041 19.7693L6.24415 20.2584H6.24415L6.14041 19.7693ZM4.39283 19.7983L4.31983 20.2929H4.31983L4.39283 19.7983ZM3.26176 19.4743L3.00237 19.9018L3.00237 19.9018L3.26176 19.4743ZM2.28121 18.1173L1.80904 18.2818L2.28121 18.1173ZM2.13097 16.1947L2.62144 16.2919L2.13097 16.1947ZM3.18216 14.5492L2.9027 14.1345H2.9027L3.18216 14.5492ZM5.77512 14.098L5.71347 14.5942H5.71348L5.77512 14.098ZM5.87322 14.0651L6.23616 14.409L6.23617 14.409L5.87322 14.0651ZM13.1882 6.34514L13.5511 6.68905L13.5511 6.68905L13.1882 6.34514ZM13.2173 6.25038L12.7213 6.31359V6.3136L13.2173 6.25038ZM13.4319 6.2224L12.9359 6.28562V6.28562L13.4319 6.2224ZM14.766 1.97346L15.0603 2.37768L14.766 1.97346ZM13.3444 6.49654L13.7073 6.84045L13.3444 6.49654ZM6.02943 14.2165L6.39237 14.5604H6.39237L6.02943 14.2165ZM5.74874 14.3152L5.81038 13.819L5.81038 13.819L5.74874 14.3152ZM3.30215 14.7312L3.5816 15.1458L3.30215 14.7312ZM2.34311 16.2377L2.83358 16.3349L2.34311 16.2377ZM2.48527 18.0446L2.95744 17.8801L2.95744 17.8801L2.48527 18.0446ZM3.37308 19.2867L3.63247 18.8592H3.63247L3.37308 19.2867ZM4.42408 19.5817L4.49708 19.0871L4.49708 19.0871L4.42408 19.5817ZM6.09601 19.5552L5.99227 19.066H5.99227L6.09601 19.5552ZM7.52495 18.713L7.9258 19.0119L7.52495 18.713ZM7.945 16.5345L7.44836 16.5924V16.5924L7.945 16.5345ZM8.03947 16.2549L8.39258 16.6089L8.39259 16.6089L8.03947 16.2549ZM15.7436 8.56975L16.0967 8.92374H16.0967L15.7436 8.56975ZM16.1279 8.51185L16.3543 8.06603L16.1279 8.51185ZM19.8539 8.06128L20.1794 8.44082L19.8539 8.06128ZM20.9435 3.87969L20.4597 4.00606V4.00606L20.9435 3.87969ZM20.7765 3.83707L21.125 4.19552L21.125 4.19552L20.7765 3.83707ZM18.3647 6.18246L18.0161 5.82401L18.0161 5.82401L18.3647 6.18246ZM17.9115 6.17913L17.5577 6.53248L17.9115 6.17913ZM16.0044 4.26991L15.6507 4.62326L16.0044 4.26991ZM15.9897 3.81917L16.366 4.14835V4.14835L15.9897 3.81917ZM18.0878 1.42033L17.7115 1.09115L17.7115 1.09115L18.0878 1.42033ZM18.0317 1.25491L18.0874 0.758021V0.758021L18.0317 1.25491ZM3.18186 0.732934C2.85224 0.486534 2.3932 0.521801 2.10456 0.81372L2.81566 1.51681C2.75421 1.57896 2.65436 1.58714 2.58312 1.53388L3.18186 0.732934ZM5.4473 2.42645L3.18186 0.732934L2.58312 1.53388L4.84856 3.2274L5.4473 2.42645ZM5.77139 2.97453C5.74063 2.75677 5.62465 2.55903 5.4473 2.42645L4.84856 3.2274C4.81091 3.19925 4.78741 3.15822 4.78122 3.11439L5.77139 2.97453ZM5.85656 3.57756L5.77139 2.97453L4.78122 3.11439L4.86639 3.71742L5.85656 3.57756ZM5.74763 3.35784C5.80709 3.41798 5.84493 3.49519 5.85656 3.57756L4.86639 3.71743C4.88465 3.84667 4.94396 3.96731 5.03653 4.06093L5.74763 3.35784ZM9.59098 7.24495L5.74762 3.35784L5.03653 4.06093L8.87988 7.94804L9.59098 7.24495ZM9.59098 8.10277C9.82583 7.86525 9.82583 7.48247 9.59098 7.24495L8.87988 7.94804C8.72953 7.79597 8.72953 7.55174 8.87988 7.39967L9.59098 8.10277ZM8.7269 8.10277C8.96486 8.34343 9.35302 8.34343 9.59098 8.10277L8.87989 7.39967C9.03335 7.24446 9.28453 7.24446 9.43799 7.39967L8.7269 8.10277ZM4.88354 4.21566L8.7269 8.10277L9.438 7.39967L5.59464 3.51256L4.88354 4.21566ZM4.65222 3.74837C4.67709 3.92448 4.75788 4.08856 4.88354 4.21566L5.59464 3.51256C5.621 3.53923 5.63737 3.57301 5.64239 3.60851L4.65222 3.74837ZM4.56704 3.14533L4.65222 3.74837L5.64239 3.60851L5.55721 3.00547L4.56704 3.14533ZM4.71996 3.40336C4.63575 3.34041 4.58142 3.24714 4.56704 3.14533L5.55721 3.00547C5.53464 2.84569 5.44948 2.70019 5.3187 2.60242L4.71996 3.40336ZM2.45452 1.70984L4.71996 3.40336L5.3187 2.60242L3.05326 0.908901L2.45452 1.70984ZM2.96865 1.67154C2.83147 1.81028 2.61189 1.82748 2.45452 1.70984L3.05326 0.908901C2.80977 0.72688 2.47046 0.753116 2.25755 0.968445L2.96865 1.67154ZM1.9369 2.71503L2.96865 1.67154L2.25755 0.968446L1.2258 2.01194L1.9369 2.71503ZM1.96956 2.20419C2.08738 2.35841 2.07418 2.57618 1.9369 2.71503L1.2258 2.01194C1.01155 2.22863 0.990553 2.56997 1.17494 2.8113L1.96956 2.20419ZM3.62718 4.37378L1.96956 2.20419L1.17494 2.8113L2.83257 4.98089L3.62718 4.37378ZM3.31547 4.21984C3.43909 4.21984 3.55387 4.27782 3.62718 4.37378L2.83257 4.98089C2.94685 5.13047 3.12485 5.21984 3.31547 5.21984V4.21984ZM3.87321 4.21984H3.31547V5.21984H3.87321V4.21984ZM4.47459 4.48145C4.31937 4.31523 4.10199 4.21984 3.87321 4.21984V5.21984C3.82301 5.21984 3.77631 5.19887 3.74371 5.16395L4.47459 4.48145ZM8.08856 8.35156L4.47459 4.48145L3.74371 5.16395L7.35768 9.03407L8.08856 8.35156ZM8.06411 9.20904C8.30585 8.97813 8.31634 8.59549 8.08856 8.35156L7.35768 9.03407C7.21194 8.878 7.21851 8.63385 7.37339 8.48592L8.06411 9.20904ZM7.20038 9.18431C7.43117 9.43146 7.81917 9.443 8.06411 9.20904L7.37338 8.48592C7.53146 8.33493 7.78252 8.34252 7.93127 8.50181L7.20038 9.18431ZM3.58642 5.3142L7.20038 9.18431L7.93126 8.50181L4.3173 4.63169L3.58642 5.3142ZM3.87321 5.43866C3.76348 5.43866 3.65989 5.39288 3.58642 5.3142L4.3173 4.63169C4.20295 4.50924 4.04247 4.43866 3.87321 4.43866V5.43866ZM3.31547 5.43866H3.87321V4.43866H3.31547V5.43866ZM2.66137 5.11468C2.81662 5.31788 3.05785 5.43866 3.31547 5.43866V4.43866C3.37208 4.43866 3.42364 4.46524 3.45599 4.50757L2.66137 5.11468ZM1.00374 2.94509L2.66137 5.11468L3.45599 4.50757L1.79836 2.33798L1.00374 2.94509ZM1.07282 1.85721C0.781597 2.15175 0.752798 2.61665 1.00374 2.94509L1.79836 2.33798C1.84963 2.40509 1.84423 2.4993 1.78392 2.5603L1.07282 1.85721ZM2.10456 0.81372L1.07282 1.85721L1.78392 2.5603L2.81566 1.51681L2.10456 0.81372ZM15.7843 20.3381C17.0245 21.5942 19.0391 21.5958 20.2812 20.3415L19.5706 19.6378C18.7203 20.4965 17.345 20.4955 16.496 19.6355L15.7843 20.3381ZM14.1123 13.3411L18.3773 17.6607L19.0889 16.9581L14.8239 12.6385L14.1123 13.3411ZM17.6912 18.3697L13.4262 14.0501L12.7146 14.7527L16.9796 19.0723L17.6912 18.3697ZM18.3768 18.3702C18.1867 18.5622 17.8811 18.5619 17.6912 18.3697L16.9796 19.0723C17.5606 19.6607 18.5056 19.6614 19.0874 19.0737L18.3768 18.3702ZM18.3773 17.6607C18.5702 17.8561 18.57 18.175 18.3768 18.3702L19.0874 19.0737C19.6661 18.4893 19.6668 17.5433 19.0889 16.9581L18.3773 17.6607ZM13.4267 13.3406C13.6168 13.1486 13.9224 13.1488 14.1123 13.3411L14.8239 12.6385C14.2429 12.0501 13.2979 12.0494 12.7161 12.637L13.4267 13.3406ZM12.7161 12.637C12.1374 13.2215 12.1368 14.1674 12.7146 14.7527L13.4262 14.0501C13.2333 13.8547 13.2335 13.5357 13.4267 13.3406L12.7161 12.637ZM16.8378 19.9184C16.7174 19.8379 16.6028 19.7437 16.496 19.6355L15.7843 20.3381C15.9387 20.4944 16.1055 20.6317 16.2818 20.7496L16.8378 19.9184ZM19.5706 19.6378C18.8265 20.3892 17.6806 20.4821 16.8378 19.9184L16.2818 20.7496C17.5162 21.5752 19.1944 21.439 20.2812 20.3415L19.5706 19.6378ZM13.9592 13.4957L18.2242 17.8153L18.9358 17.1127L14.6708 12.7931L13.9592 13.4957ZM13.5796 13.4954C13.6851 13.3888 13.8538 13.3889 13.9592 13.4957L14.6708 12.7931C14.1742 12.2902 13.3662 12.2896 12.869 12.7918L13.5796 13.4954ZM13.5793 13.8955C13.4708 13.7855 13.4709 13.6052 13.5796 13.4954L12.869 12.7918C12.3748 13.2909 12.3743 14.0983 12.8677 14.5981L13.5793 13.8955ZM17.8443 18.2151L13.5793 13.8955L12.8677 14.5981L17.1327 18.9176L17.8443 18.2151ZM18.2239 18.2153C18.1184 18.3219 17.9497 18.3218 17.8443 18.2151L17.1327 18.9176C17.6293 19.4205 18.4373 19.4211 18.9345 18.9189L18.2239 18.2153ZM18.2242 17.8153C18.3327 17.9252 18.3326 18.1056 18.2239 18.2153L18.9345 18.9189C19.4287 18.4198 19.4292 17.6124 18.9358 17.1127L18.2242 17.8153ZM18.1112 0.540537C17.0166 0.417817 15.5151 0.539977 14.3453 1.39167L14.9339 2.20009C15.8226 1.55307 17.0351 1.42616 17.9998 1.53431L18.1112 0.540537ZM18.6262 1.89449C19.024 1.43972 18.823 0.620334 18.1112 0.540537L17.9998 1.53431C17.9686 1.53082 17.9318 1.51685 17.8995 1.49C17.8691 1.46461 17.8504 1.43428 17.8406 1.40628C17.8219 1.35273 17.8298 1.28618 17.8735 1.23613L18.6262 1.89449ZM16.5281 4.29333L18.6262 1.89449L17.8735 1.23613L15.7754 3.63497L16.5281 4.29333ZM16.5104 3.76105C16.6558 3.90657 16.663 4.13901 16.5281 4.29333L15.7754 3.63497C15.5643 3.87624 15.576 4.24056 15.8029 4.46775L16.5104 3.76105ZM18.4174 5.67027L16.5104 3.76105L15.8029 4.46775L17.7099 6.37697L18.4174 5.67027ZM17.8662 5.66628C18.02 5.51668 18.2659 5.51856 18.4174 5.67027L17.7099 6.37697C17.9449 6.61222 18.3249 6.61508 18.5633 6.38318L17.8662 5.66628ZM20.2779 3.32089L17.8662 5.66628L18.5633 6.38318L20.9751 4.03779L20.2779 3.32089ZM21.6364 3.69742C21.4712 3.06506 20.7086 2.9021 20.2779 3.32089L20.9751 4.0378C20.9282 4.08338 20.8611 4.09746 20.8036 4.08239C20.7415 4.06615 20.6858 4.01479 20.6689 3.95017L21.6364 3.69742ZM20.3193 8.60772C21.5435 7.55785 22.1823 5.78714 21.6364 3.69742L20.6689 3.95016C21.1254 5.69781 20.5808 7.06604 19.6683 7.84863L20.3193 8.60772ZM15.8045 9.15322C17.3574 9.94179 19.1082 9.64633 20.3193 8.60772L19.6683 7.84863C18.7476 8.63819 17.43 8.85711 16.2572 8.26159L15.8045 9.15322ZM16.2487 9.07953C16.1205 9.20739 15.9389 9.2215 15.8045 9.15322L16.2572 8.26159C16.0278 8.14506 15.737 8.17746 15.5424 8.37155L16.2487 9.07953ZM8.54451 16.7647L16.2487 9.07953L15.5424 8.37155L7.83828 16.0567L8.54451 16.7647ZM8.6565 16.451C8.66301 16.5068 8.65663 16.561 8.64039 16.6103C8.62451 16.6586 8.59523 16.7141 8.5445 16.7647L7.83829 16.0567C7.6981 16.1965 7.64262 16.39 7.66323 16.5668L8.6565 16.451ZM8.09855 19.1436C8.58604 18.4898 8.78999 17.5961 8.6565 16.451L7.66323 16.5668C7.77647 17.5382 7.58961 18.1532 7.29684 18.5459L8.09855 19.1436ZM6.24415 20.2584C6.9176 20.1156 7.61438 19.793 8.09855 19.1436L7.29685 18.5459C7.00217 18.9411 6.55641 19.17 6.03668 19.2802L6.24415 20.2584ZM4.31983 20.2929C4.88013 20.3756 5.57282 20.4008 6.24415 20.2584L6.03668 19.2802C5.51544 19.3907 4.94855 19.3749 4.46584 19.3036L4.31983 20.2929ZM3.00237 19.9018C3.27546 20.0675 3.7827 20.2136 4.31983 20.2929L4.46584 19.3036C3.9682 19.2302 3.6209 19.1074 3.52116 19.0469L3.00237 19.9018ZM1.80904 18.2818C2.03674 18.9354 2.43731 19.5589 3.00237 19.9018L3.52116 19.0469C3.22361 18.8663 2.93617 18.4775 2.75338 17.9528L1.80904 18.2818ZM1.6405 16.0976C1.49405 16.837 1.5773 17.6165 1.80904 18.2818L2.75338 17.9528C2.57324 17.4357 2.51345 16.8372 2.62144 16.2919L1.6405 16.0976ZM2.9027 14.1345C2.17725 14.6235 1.78841 15.3507 1.6405 16.0976L2.62144 16.2919C2.72853 15.7512 2.99617 15.2775 3.46162 14.9638L2.9027 14.1345ZM5.83676 13.6018C4.60396 13.4486 3.62492 13.6477 2.9027 14.1345L3.46162 14.9638C3.92892 14.6488 4.6456 14.4615 5.71347 14.5942L5.83676 13.6018ZM5.51028 13.7212C5.60391 13.6224 5.72722 13.5882 5.83675 13.6018L5.71348 14.5942C5.89856 14.6172 6.09722 14.5556 6.23616 14.409L5.51028 13.7212ZM12.8252 6.00124L5.51028 13.7212L6.23617 14.409L13.5511 6.68905L12.8252 6.00124ZM12.7213 6.3136C12.7081 6.20994 12.7376 6.09376 12.8252 6.00124L13.5511 6.68905C13.6825 6.55038 13.7356 6.36224 13.7133 6.18716L12.7213 6.3136ZM14.3453 1.39167C13.1227 2.28183 12.4083 3.85781 12.7213 6.31359L13.7133 6.18716C13.4338 3.99439 14.0789 2.82265 14.9339 2.20009L14.3453 1.39167ZM13.9278 6.15919C13.6559 4.02541 14.2849 2.94224 15.0603 2.37768L14.4717 1.56925C13.3292 2.40114 12.6303 3.88825 12.9359 6.28562L13.9278 6.15919ZM13.7073 6.84045C13.8874 6.65045 13.9579 6.3949 13.9278 6.15919L12.9359 6.28562C12.9306 6.24448 12.9412 6.19514 12.9814 6.15264L13.7073 6.84045ZM6.39237 14.5604L13.7073 6.84045L12.9814 6.15264L5.66648 13.8726L6.39237 14.5604ZM5.6871 14.8113C5.93316 14.8419 6.20171 14.7616 6.39237 14.5604L5.66648 13.8726C5.7102 13.8264 5.76458 13.8133 5.81038 13.819L5.6871 14.8113ZM3.5816 15.1458C3.99404 14.8679 4.65451 14.6831 5.6871 14.8113L5.81038 13.819C4.61268 13.6702 3.68992 13.8669 3.02269 14.3166L3.5816 15.1458ZM2.83358 16.3349C2.93157 15.8401 3.17237 15.4217 3.5816 15.1458L3.02269 14.3166C2.35364 14.7676 1.99151 15.4394 1.85263 16.1406L2.83358 16.3349ZM2.95744 17.8801C2.78869 17.3957 2.73409 16.8372 2.83358 16.3349L1.85263 16.1406C1.7147 16.837 1.79274 17.5765 2.0131 18.209L2.95744 17.8801ZM3.63247 18.8592C3.39274 18.7138 3.13019 18.376 2.95744 17.8801L2.0131 18.209C2.23085 18.8341 2.60661 19.4064 3.11369 19.7141L3.63247 18.8592ZM4.49708 19.0871C4.26434 19.0528 4.06165 19.0064 3.90463 18.9603C3.82612 18.9372 3.76181 18.915 3.71266 18.8955C3.6882 18.8858 3.66896 18.8774 3.65457 18.8706C3.64746 18.8672 3.64204 18.8644 3.63814 18.8624C3.63419 18.8603 3.63242 18.8592 3.63247 18.8592L3.11369 19.7141C3.24418 19.7933 3.42918 19.8628 3.62256 19.9197C3.82651 19.9796 4.07479 20.0356 4.35107 20.0764L4.49708 19.0871ZM5.99227 19.066C5.50316 19.1698 4.96319 19.1559 4.49708 19.0871L4.35107 20.0764C4.89477 20.1566 5.56054 20.1798 6.19975 20.0443L5.99227 19.066ZM7.1241 18.4142C6.87064 18.7541 6.47912 18.9628 5.99227 19.066L6.19974 20.0443C6.8406 19.9084 7.48299 19.6058 7.9258 19.0119L7.1241 18.4142ZM7.44836 16.5924C7.55709 17.5251 7.37423 18.0787 7.1241 18.4142L7.9258 19.0119C8.37053 18.4154 8.57064 17.5832 8.44164 16.4766L7.44836 16.5924ZM7.68635 15.9009C7.49377 16.093 7.42078 16.3558 7.44836 16.5924L8.44164 16.4766C8.44611 16.515 8.4366 16.565 8.39258 16.6089L7.68635 15.9009ZM15.3905 8.21576L7.68635 15.9009L8.39259 16.6089L16.0967 8.92374L15.3905 8.21576ZM16.3543 8.06603C16.0508 7.91193 15.6579 7.94903 15.3905 8.21576L16.0967 8.92374C16.0369 8.98341 15.9561 8.98538 15.9015 8.95766L16.3543 8.06603ZM19.5284 7.68174C18.6706 8.41737 17.4458 8.62027 16.3543 8.06603L15.9015 8.95766C17.373 9.70486 19.031 9.42563 20.1794 8.44082L19.5284 7.68174ZM20.4597 4.00606C20.8964 5.6776 20.3731 6.95726 19.5284 7.68174L20.1794 8.44082C21.3357 7.44918 21.9533 5.76712 21.4273 3.75331L20.4597 4.00606ZM21.125 4.19552C20.9089 4.40572 20.5379 4.30546 20.4597 4.00606L21.4273 3.75332C21.312 3.31215 20.7619 3.15381 20.4279 3.47863L21.125 4.19552ZM18.7133 6.54091L21.125 4.19552L20.4279 3.47862L18.0161 5.82401L18.7133 6.54091ZM17.5577 6.53248C17.8761 6.85126 18.3902 6.85512 18.7133 6.54091L18.0161 5.82401C18.0853 5.75671 18.1971 5.75761 18.2652 5.82578L17.5577 6.53248ZM15.6507 4.62326L17.5577 6.53248L18.2652 5.82578L16.3582 3.91656L15.6507 4.62326ZM15.6133 3.48999C15.3263 3.81819 15.3422 4.3144 15.6507 4.62326L16.3582 3.91656C16.422 3.98042 16.4249 4.08099 16.366 4.14835L15.6133 3.48999ZM17.7115 1.09115L15.6133 3.48999L16.366 4.14835L18.4642 1.74951L17.7115 1.09115ZM17.976 1.7518C17.6376 1.71386 17.5111 1.32024 17.7115 1.09115L18.4642 1.74951C18.7811 1.38716 18.5726 0.812424 18.0874 0.758021L17.976 1.7518ZM15.0603 2.37768C15.8885 1.77474 17.039 1.64676 17.976 1.7518L18.0874 0.758021C17.0203 0.638395 15.5809 0.761715 14.4717 1.56925L15.0603 2.37768ZM5.41364 16.9735C5.41364 17.2466 5.19629 17.4582 4.94006 17.4582V18.4582C5.75922 18.4582 6.41364 17.7881 6.41364 16.9735H5.41364ZM4.94006 16.4889C5.19629 16.4889 5.41364 16.7005 5.41364 16.9735H6.41364C6.41364 16.1589 5.75922 15.4889 4.94006 15.4889V16.4889ZM4.46647 16.9735C4.46647 16.7005 4.68382 16.4889 4.94006 16.4889V15.4889C4.1209 15.4889 3.46647 16.1589 3.46647 16.9735H4.46647ZM4.94006 17.4582C4.68382 17.4582 4.46647 17.2466 4.46647 16.9735H3.46647C3.46647 17.7881 4.1209 18.4582 4.94006 18.4582V17.4582ZM5.63 16.9735C5.63 17.3674 5.31578 17.677 4.94006 17.677V18.677C5.87871 18.677 6.63 17.909 6.63 16.9735H5.63ZM4.94006 16.27C5.31578 16.27 5.63 16.5797 5.63 16.9735H6.63C6.63 16.0381 5.87871 15.27 4.94006 15.27V16.27ZM4.25012 16.9735C4.25012 16.5797 4.56433 16.27 4.94006 16.27V15.27C4.00141 15.27 3.25012 16.0381 3.25012 16.9735H4.25012ZM4.94006 17.677C4.56433 17.677 4.25012 17.3674 4.25012 16.9735H3.25012C3.25012 17.909 4.00141 18.677 4.94006 18.677V17.677Z" fill="black" mask="url(#path-1-outside-1_383_65)"/>
</svg>
