<svg width="20" height="20" viewBox="0 0 20 20" fill="none" xmlns="http://www.w3.org/2000/svg">
<path d="M8.19141 1.99023C9.03237 0.75463 10.8232 0.715755 11.7236 1.87402L11.8086 1.99023C12.5046 3.0125 13.6628 3.61339 14.8887 3.60254L15.1348 3.5918C16.6252 3.4789 17.772 4.85506 17.4277 6.28125L17.3896 6.41992C17.0243 7.60158 17.2767 8.88226 18.0498 9.83398L18.2119 10.0195C19.2292 11.1144 18.8686 12.8692 17.5391 13.4893L17.4072 13.5449C16.2553 13.996 15.4115 14.9924 15.1494 16.1904L15.1045 16.4326C14.8827 17.9105 13.2864 18.7222 11.9727 18.0693L11.8467 18.002C10.7759 17.3826 9.47111 17.3438 8.37109 17.8857L8.15332 18.002C6.85954 18.7499 5.22942 18.0074 4.9209 16.5732L4.89551 16.4326C4.71212 15.2093 3.9289 14.1647 2.81934 13.6426L2.59277 13.5449C1.2011 12.9997 0.764961 11.2624 1.69434 10.127L1.78809 10.0195C2.63018 9.11344 2.95834 7.85022 2.6748 6.65723L2.61035 6.41992C2.16863 4.99199 3.25463 3.56764 4.72168 3.58594L4.86523 3.5918C6.09874 3.68511 7.29102 3.15416 8.04688 2.18848L8.19141 1.99023Z" stroke="black" stroke-width="1.5"/>
</svg>
